<?xml version="1.0" encoding="UTF-8"?>
<svg id="Layer_1" xmlns="http://www.w3.org/2000/svg" version="1.1" viewBox="0 0 897.9 146">
  <!-- Generator: Adobe Illustrator 29.0.0, SVG Export Plug-In . SVG Version: 2.1.0 Build 186)  -->
  <defs>
    <style>
      .st0 {
        fill: #26ad60;
      }

      .st0, .st1, .st2 {
        isolation: isolate;
      }

      .st0, .st2 {
        font-family: Arial-BoldMT, Arial;
        font-size: 64.3px;
        font-weight: 700;
      }

      .st3 {
        fill: #4e5f00;
      }

      .st2 {
        fill: #fff;
      }

      .st4 {
        fill: #012e00;
      }
    </style>
  </defs>
  <g class="st1">
    <g class="st1">
      <g class="st1">
        <g class="st1">
          <g class="st1">
            <text class="st0" transform="translate(51.6 90.6)"><tspan x="0" y="0">CONNECT WITH A FRIEND</tspan></text>
          </g>
        </g>
      </g>
    </g>
  </g>
  <g>
    <path class="st4" d="M72.5,15.5h754.4c39.2,0,71,22.8,71,51v29c0,28.2-31.8,51-71,51H72.5C33.2,146.5,1.4,123.7,1.4,95.5v-29C1.4,38.3,33.2,15.5,72.5,15.5Z"/>
    <path class="st3" d="M71,.5h754.4c39.2,0,71,22.8,71,51v29c0,28.2-31.8,51-71,51H71C31.8,131.5,0,108.7,0,80.5v-29C0,23.3,31.8.5,71,.5Z"/>
  </g>
  <g class="st1">
    <g class="st1">
      <g class="st1">
        <g class="st1">
          <g class="st1">
            <text class="st2" transform="translate(49 86.5)"><tspan x="0" y="0">CONNECT WITH A FRIEND</tspan></text>
          </g>
        </g>
      </g>
    </g>
  </g>
</svg>