<?xml version="1.0" encoding="UTF-8"?>
<svg id="Layer_1" data-name="Layer 1" xmlns="http://www.w3.org/2000/svg" viewBox="0 0 863.47 146">
  <defs>
    <style>
      .cls-1, .cls-2, .cls-3 {
        isolation: isolate;
      }

      .cls-1, .cls-3 {
        font-family: Arial-BoldMT, Arial;
        font-size: 64.3px;
        font-weight: 700;
      }

      .cls-1, .cls-4 {
        fill: #26ad60;
      }

      .cls-3 {
        fill: #fff;
      }

      .cls-5 {
        fill: #2ecc71;
      }
    </style>
  </defs>
  <g>
    <path class="cls-4" d="M69.72,15h725.37c37.77,0,68.38,22.83,68.38,51v29c0,28.17-30.61,51-68.38,51H69.72C31.96,146,1.34,123.17,1.34,95v-29C1.34,37.83,31.96,15,69.72,15Z"/>
    <path class="cls-5" d="M68.38,0h725.37c37.77,0,68.38,22.83,68.38,51v29c0,28.17-30.61,51-68.38,51H68.38C30.61,131,0,108.17,0,80v-29C0,22.83,30.61,0,68.38,0Z"/>
  </g>
  <g class="cls-2">
    <g class="cls-2">
      <g class="cls-2">
        <text class="cls-1" transform="translate(51.6 90.6)"><tspan x="0" y="0">CONNECT WITH FRIEND</tspan></text>
      </g>
    </g>
  </g>
  <g class="cls-2">
    <g class="cls-2">
      <g class="cls-2">
        <text class="cls-3" transform="translate(49 86.5)"><tspan x="0" y="0">CONNECT WITH FRIEND</tspan></text>
      </g>
    </g>
  </g>
</svg>