<?xml version="1.0" encoding="UTF-8"?>
<svg id="Layer_1" xmlns="http://www.w3.org/2000/svg" version="1.1" viewBox="0 0 897.9 146">
  <!-- Generator: Adobe Illustrator 29.0.0, SVG Export Plug-In . SVG Version: 2.1.0 Build 186)  -->
  <defs>
    <style>
      .st0, .st1, .st2 {
        isolation: isolate;
      }

      .st0, .st2 {
        font-family: Arial-BoldMT, Arial;
        font-size: 64.3px;
        font-weight: 700;
      }

      .st0, .st3 {
        fill: #26ad60;
      }

      .st2 {
        fill: #fff;
      }

      .st4 {
        fill: #2ecc71;
      }
    </style>
  </defs>
  <g>
    <path class="st3" d="M72.4,15h753.5c39.2,0,71,22.8,71,51v29c0,28.2-31.8,51-71,51H72.4C33.2,146,1.4,123.2,1.4,95v-29C1.4,37.8,33.2,15,72.4,15Z"/>
    <path class="st4" d="M71,0h753.5c39.2,0,71,22.8,71,51v29c0,28.2-31.8,51-71,51H71C31.8,131,0,108.2,0,80v-29C0,22.8,31.8,0,71,0Z"/>
  </g>
  <g class="st1">
    <g class="st1">
      <g class="st1">
        <g class="st1">
          <text class="st0" transform="translate(51.6 90.6)"><tspan x="0" y="0">CONNECT WITH A FRIEND</tspan></text>
        </g>
      </g>
    </g>
  </g>
  <g class="st1">
    <g class="st1">
      <g class="st1">
        <g class="st1">
          <text class="st2" transform="translate(49 86.5)"><tspan x="0" y="0">CONNECT WITH A FRIEND</tspan></text>
        </g>
      </g>
    </g>
  </g>
</svg>