<?xml version="1.0" encoding="UTF-8"?>
<svg id="Layer_1" data-name="Layer 1" xmlns="http://www.w3.org/2000/svg" viewBox="0 0 484.15 487.24">
  <defs>
    <style>
      .cls-1 {
        fill: #2dcb70;
      }
    </style>
  </defs>
  <path class="cls-1" d="M453.14,280.24c1.66,0,3.34-.05,5,0,1,.03,2-.03,3,0-.57,3.66-1.26,7.37-2,10.99-.4,1.99-.63,4.54-1,6-1.6,6.37-4.71,15.73-7,22-.87,2.38-2.08,5.78-3,8-4.24,10.26-10.69,19.75-15,30-4.36,4.18-6.54,10.44-10,15-8.53,11.25-19.59,24-29.99,33.51-6.55,6-15.06,11.06-21.01,17.49-4.42,2.19-10.53,5.61-14,9-9.76,5.53-19.81,10.33-30,15-2.69,1.23-6.86,1.75-9,4-7.15,1.45-13.93,4.25-21,6-2.31.57-5.14,1.64-7,2-1.41.27-9.62,1.33-10,1-.04-1,.03-2,0-3-.05-1.66-.02-3.34,0-5,.03-2.61-.21-5.27.13-7.87,3.67-.63,7.44-2.23,10.87-3.13,1.7-.45,3.88-.37,6-1,7.85-2.31,15.41-4.96,23-8,3.14-1.26,5.95-2.59,9-4,43.99-20.43,77.5-54.06,98-98,1.44-3.08,2.71-5.84,4-9,3.33-8.19,5.58-14.41,8-23,.68-2.42,1.37-4.43,2-7,.88-3.61,2.2-7.18,2.01-10.99,2.99-.03,6,0,8.99,0Z"/>
  <path class="cls-1" d="M303.14,30.24c1.4.39,2.91.68,4,1,3.15.94,7.62,2.8,11,4,.99.35,2.04.64,3,1,3.03,1.14,7.04,2.73,10,4,1.62.69,3.79,1.44,5,2,2.9,1.33,7.05,3.48,10,5,.79.41,1.82,1.36,3,2,2.94,1.58,6.16,3.28,9,5,.97.59,1.97,1.36,3,2,2.61,1.63,5.49,3.28,8,5,1.1.75,2.71,2.06,4,3,2.63,1.92,5.46,3.99,8,6,1.23.97,2.54,1.62,3,2,2.23,1.84,5.93,5.13,8,7,.86.78,1.94,2,3,3,2.18,2.06,4.86,4.81,7,7,.96.98,2.14,2.08,3,3,2.01,2.16,4.05,4.73,6,7,1.04,1.22,2.37,2.24,3,3,1.89,2.3,5.13,6.47,7,9,.52.7,1.24,1.94,2,3,1.67,2.35,3.32,5.46,5,8,.93,1.41,2.25,2.79,3,4,1.7,2.75,4.96,7.14,6,9,.2.36.31,1.71,1,3,1.53,2.88,3.59,7.03,5,10,.64,1.35,1.51,2.91,2,4,1.19,2.66,3.03,6.57,4,9,.35.88.45,2.52,1,4,1.35,3.61,2.85,7.34,4,11,.35,1.12.6,2.62,1,4,1.16,4.01,2.07,7.93,3,12,.3,1.34.73,2.66,1,4,.86,4.29,2.33,8.51,2,13h-15c-.62-.09-.75-.53-1-1-.88-1.63-2.24-9.16-3-12-.36-1.33-.6-2.59-1-4-1.11-3.94-1.75-8.05-3-12-.49-1.56-1.62-2.91-2-4-1.42-4.1-2.3-6.87-4-11-.37-.9-.55-1.95-1-3-2.02-4.67-4.13-7.34-6-11-.26-.52-.29-1.67-1-3-1.93-3.63-3.99-6.68-6-10-.32-.53-.54-1.25-1-2-2.57-4.14-4.5-6.44-7-10-.28-.39-.45-1.23-1-2-2.45-3.42-4.38-5.73-7-9-.94-1.18-1.65-2.39-3-4-2.1-2.5-3.72-4.55-6-7-1.01-1.09-2-1.97-3-3-2.37-2.44-4.49-4.66-7-7-1.46-1.36-2.63-1.67-3-2-3-2.7-4.88-4.45-8-7-.82-.67-1.56-1.88-3-3-2.66-2.08-5.24-4.04-8-6-1.36-.96-2.58-2.06-4-3-2.93-1.95-6.05-3.25-9-5-.81-.48-1.59-1.2-3-2-3.02-1.72-5.89-3.42-9-5-2.15-1.09-3.64-1.35-5-2-3.43-1.63-6.35-3.49-10-5-1.05-.44-2.07-.64-3-1-3.71-1.45-7.24-2.69-11-4-1.52-.53-3.1-1.36-5-2-3-1-8.55-1.62-11-3-.46-.26-.92-.37-1-1v-15c.33-.33.67-.67,1-1,3.49,1.91,8.24,1.95,12,3Z"/>
  <path class="cls-1" d="M44.14,295.24c.63-.02,1.27-.19,1.88.09.02,2.62,1.4,4.72,2.12,6.91.38,1.14.47,2.49,1,4,1.61,4.62,3.41,7.99,5,12,.33.83.5,1.8,1,3,1.37,3.27,2.28,6.4,4,10,.62,1.31,1.6,2.2,2,3,2.17,4.34,3.69,7,6,11,.33.57.56,1.27,1,2,2.05,3.46,3.73,6.61,6,10,1.09,1.64,2.08,2.7,3,4,1.69,2.38,3.19,4.66,5,7,1.03,1.33,1.92,2.68,3,4,1.95,2.37,3.96,4.71,6,7,1.45,1.63,2.74,2.66,4,4,2.02,2.14,3.9,3.96,6,6,1.36,1.33,2.44,2.57,4,4,2.57,2.37,4.45,3.84,7,6,1.4,1.18,2.43,1.53,3,2,2.68,2.18,4.6,4.52,8,7,1.35.98,2.61,2.03,4,3,2.6,1.8,5.34,3.32,8,5,1.69,1.06,2.94,1.37,4,2,3.26,1.94,6.39,4.13,10,6,.84.43,1.71,1.36,3,2,3.27,1.62,6.7,2.57,10,4,1.23.53,2.22.68,3,1,4.23,1.75,7.21,3.32,12,5,1.03.36,1.97.66,3,1,4.02,1.33,7.88,2.89,12,4,1.33.36,2.66.69,4,1,2.24.53,4.66.77,6.95,1.06.25,1.3-.03,2.64.05,3.94.11,1.63.04,3.36,0,5-.07,2.66.06,5.34,0,8-2.21-.45-4.88-.56-6.99-1-1.06-.22-2.7-.69-4-1-3.62-.86-8.56-1.99-12-3-.92-.27-2-.69-3-1-3.51-1.1-8.66-2.75-12-4-.53-.2-1.67-1.47-3-2-3.38-1.35-7.9-2.6-11-4-.67-.31-1.75-1.4-3-2-2.82-1.36-6.48-2.67-9-4-1.33-.7-2.94-1.41-4-2-2.56-1.43-7.34-4.32-10-6-.75-.47-1.56-.71-2-1-1.96-1.28-5.54-4.25-8-6-1.28-.91-2.71-2.04-4-3-2.36-1.77-6.03-4.38-8-6-.76-.63-1.78-1.96-3-3-2.29-1.96-4.81-3.96-7-6-1.22-1.14-2.69-2.72-4-4-1.89-1.85-4.21-4.12-6-6-1-1.06-2.2-2.12-3-3-2.01-2.21-5.15-5.77-7-8-.87-1.06-1.94-2.66-3-4-1.72-2.18-3.35-4.73-5-7-.97-1.33-2.08-2.67-3-4-1.75-2.53-3.34-5.39-5-8-.92-1.44-2.27-2.79-3-4-1.69-2.81-3.42-6.09-5-9-.63-1.16-1.59-2.2-2-3-1.45-2.81-2.65-7.05-4-10-.59-1.29-1.73-2.37-2-3-1.52-3.52-2.64-7.4-4-11-.55-1.46-1.63-2.94-2-4-1.13-3.2-1.83-7.54-3-11-.47-1.4-.89-2.92-2-4,.31-.8-.49-2.98.12-3.84.21-.29,5.73-1.88,6.88-2.16,1.61-.38,5.36-.95,7-1Z"/>
  <path class="cls-1" d="M189.14,29.24c2.67-.61,5.18-1.4,8-1.01.07,1.66-.09,3.35,0,5.01s.06,3.36,0,5c-.07,1.96.22,3.95-.1,5.9-2.68.47-5.3,1.33-7.9,2.1-2.34.69-4.66,1.22-7,2-9.06,3.02-16.36,6-25,10-3.61,1.67-6.51,3.15-10,5-36.82,19.55-63.32,46.4-83,83-1.94,3.61-3.26,6.3-5,10-4.39,9.35-6.76,15.05-10,25-.86,2.65-1.3,4.5-2,7-1.7,6.01-2.18,2.97-4,4-.71-1.66-2.91-.71-4-1-3.29-.89-4.77-2.3-9-2,.13-2.25.42-4.84,1-7,1.83-6.85,5.31-16.34,8-23,1.18-2.94,2.67-6.1,4-9,5.4-11.78,12.5-24.43,20-35,12.35-17.4,35.54-40.76,53-53,10.27-7.2,23.6-14.75,35-20,2.56-1.18,6.52-3,9-4,6.34-2.55,15.3-5.16,22-7,2.23-.61,5-1.55,7-2Z"/>
  <path class="cls-1" d="M13.14,200.24c1.3.3,2.65.68,4,1,3.96.93,7.99,2.05,12,3,1.3.31,2.66.67,4,1,3.98.97,8,2.02,12,3,1.32.32,2.67.67,4,1,4.01,1,7.96,2.05,12,3,1.19.28,2.47,1.3,4,1-.49,3.07.06,7.63,0,11-.04,1.99.1,4.01,0,6-.08,1.65.17,3.31-.05,4.95-2.07-.07-3.98.67-5.95,1.05-12.01,2.27-24.02,4.56-35.99,7.01l26.99,5.99c3.83.94,8.26,1.17,12,2,.58.13,1.73,1.48,3,1-.6,2.32,0,8.96,0,12v6c-1.55,2.29,1.31,2.85-5,5-1.75.6-4.97-.06-7,2-6.49.3-12.76,2.46-19,4-2.36.58-4.68,1.43-7,2-6.62,1.63-13.38,3.53-20,5-2.06.46-4.82.41-7,1,.38-3.28,0-7.54,0-11v-5c.33-.34.68-.66,1-1l46.99-10.5c-11.04-1.74-22.1-4.01-32.99-6.5-4-.91-8.03-1.97-12-3-1.03-.27-2.08-.39-3-1,.79-3.41-.56-9.22,0-13,.26-.44-.7-2.48.64-3.04l46.35-9.97-34.99-7.99-11-2c.05-.44-1-1.51-1-2-.02-4.99.01-10.01,0-15,.47-.46,11.19,1.58,13,2Z"/>
  <path class="cls-1" d="M218.14.24c5.89-.28,11.94.05,17.84.16.99,3.68,3.38,6.62,5.16,9.84.75,1.36,1.72,2.48,2,3,5.26,9.84,8.46,21.45,16,30V.24c4.23.54,10.04-.75,14,0,.75.14.86.25,1,1,.66,3.49-.04,9.99,0,14,.02,1.67-.01,3.33,0,5,.03,4.99.02,10.01,0,15,0,2,0,4,0,6-.02,4.66.07,9.35,0,14-.03,1.99.13,4.02,0,6-.08,1.33.08,2.68,0,4.01-1.32.07-2.68-.09-4.01,0-1.65.11-3.34-.03-5,0-3,.05-12.24-.64-14,0,.04-.87-.74-1.44-1-2-1.55-3.4-3.31-6.68-5-10-.64-1.26-1.58-2.18-2-3-1.92-3.72-4.14-7.51-6-11-.24-.45-.29-1.68-1-3-1.95-3.62-3.54-8.35-5.81-11.69-.87-1.28-1.13-2.73-3.19-2.3,1.34,6.62.9,13.28.99,20,.02,1.67,0,3.33,0,5v15c-.22.38.49,2.14-.19,2.81s-2.43-.03-2.81.19c-3.75.4-8.43-.57-12,0v-25c0-4.66-.02-9.34,0-14,0-2-.01-4,0-6,.03-4.65-.17-9.36,0-14,.07-1.99-.05-4.01,0-6,1.66-.05,3.34.08,5,0Z"/>
  <path class="cls-1" d="M428.14,225.24c1.66-.04,3.33.02,5,0,4.99-.05,10.01.01,15,0,1.67,0,3.33,0,5,0,4.99,0,10.01.02,15,0,1.67,0,3.33,0,5,0,4.32,0,7.38.68,11,1v5c0,4.99.03,10.01,0,15-.01,1.67.02,3.33,0,5-.05,4.32.03,8.68,0,13.01-4.32-.02-8.68,0-13.01,0-.51,0-1.61-1.04-2-1,.25-4.61-.35-9.42,0-14,.11-1.43,1.8-3.87,1-6h-11.01c-.11,4.31.16,8.68,0,13-.07,1.99.06,4.01,0,6.01-1.99.04-4.01-.06-6.01,0-1.21.03-5.77-.2-6,0-3.33,1-1.91-5.85-2-9-.05-1.66.09-3.34,0-5s.07-3.35,0-5.01h-12.01c0,4.66,0,9.35,0,14.01v5c-.51.51-1.47,1.47-2,2-1.67,0-3.33,0-5,0-2.33,0-4.68,0-7.01,0-.03-1.33.03-2.67,0-4-.04-2,.03-4,0-6-.08-4.65-.04-9.35,0-14,.02-2-.04-4,0-6,.06-2.99-.05-6.01,0-9.01,2.99-.04,6.01.07,9.01,0Z"/>
  <path class="cls-1" d="M253.14,420.24c1.82.17,2.6.66,4,1,2.24.54,7.4,1.57,8,4,.3,1.21-.06,3.5,0,5,.13,2.98-.08,6.01,0,9-2.23-.84-4.79-1.29-6.99-2-4.64-1.48-17.41-6.34-20.53,0s8.61,8.89,12.53,11c2.34,1.26,6.1,2.56,8,4,.17.13,2.88,2.83,3,3,2.46,3.39,2.72,6.05,3,10,.12,1.74.2,4.33,0,6-1.08,8.88-6.62,11.55-14,14-1.64.55-6.13,1.1-7,2-4.02-1.23-9.4-.33-13-1-.74-.14-3.92-1.54-5-2-4.15-1.76-6.3-1.01-4-7,1.98-1.99,2.15-5.98,3-8,4.16-.46,19.36,7.31,22.53,1.01s-11.46-9.71-15.53-12.01c-1.97-1.11-5.5-3.45-7-5-.47-.48-1.93-1.88-2-2-2.06-3.41-2.12-8.12-2-12,.07-2.44.08-4.68,1-7,1.22-3.09,7-8.63,10-10,.33-.15,6.64-1.95,7-2,3.69-.46,11.2-.35,15,0Z"/>
  <path class="cls-1" d="M245.14,84.24c.37,1.65.61,3.33,1,5,.94,4.01,2.07,7.99,3,12,.31,1.35.7,2.69,1,4,.93,4.02,2.09,8.02,3,12,.31,1.36.7,2.7,1,4,.81,3.54,1.12,8.16,2,12,.48,2.1,1.76,3.98,2,5,.82,3.52,1.12,8.17,2,12,.31,1.34.69,2.66,1,4,.93,4.01,2.07,8.02,3,12,.32,1.36.68,2.67,1,4,.98,4.07,1.96,7.96,3,12,.38,1.5.38,2.85,1,5,.22.77-.18,2.08,0,3,.8.08,1.5.03,2.29-.2,2.48-.73,28.35-16.16,29.7-17.8,4.03-1.22,9.15-3.83,12-7l14.99-6.99-3.99,7.99c-4.5,4.28-8.3,10.32-11,16-8.63,7.91-14.92,23.58-22.99,32.51,1.83,1.45,5.02,1,6.99,1.49,1.32.33,2.66.67,4,1,4.01,1.01,7.95,2.06,12,3,1.32.31,2.64.69,4,1,4.05.94,8.55,1.2,12,2,1.25.29,3.32,1.61,5,2,3.63.84,7.44,1.18,11,2,1.82.42,3.46.65,5,1,3.96.91,7.96,2.07,12,3,1.32.3,2.65.69,4,1,3.98.92,8,2.08,12,3,1.34.31,2.66.69,4,1,4,.92,8.39,1.18,12,2,.98.22,2.95,1.51,5,2,3.57.85,7.32,1.71,11,2-.15.21.38,1.45-.13,1.84-.2.15-3.72.85-4.87,1.16-6.16,1.7-12.76,2.52-19,4-2.36.56-4.69,1.46-7,2-6.27,1.46-12.72,2.55-19,4-2.38.55-4.75,1.48-7,2-6.27,1.44-12.71,2.56-19,4-2.39.55-4.78,1.5-7,2-6.28,1.43-12.7,2.57-19,4-5.24,1.19-10.68,2.18-16,3.01-1.31,1.27,5.37,8.91,6,9.99,1.28,2.22,2.53,5.47,4,8,1.03,1.78,2.5,3.14,3,4,1.65,2.84,3.31,6.08,5,9,.76,1.32,1.6,2.3,2,3,1.75,3.05,4.66,7.46,6,10,.07.14.95,2.77,1,3,.13.58-.09,1.36,0,2v1c-.97-.43-2.43-.68-3-1-.72-.41-1.49-1.18-3-2-3.42-1.86-6.87-3.31-10-5-.67-.36-1.36-.65-2-1-2.94-1.59-6.47-4.09-10-6-1.32-.71-2.58-.77-3-1-3.04-1.65-6.27-4.07-10-6-2.85-1.47-5.2-4.84-8.99-4-.51,5.08-1.9,10.05-3.01,15-1.41,6.3-2.57,12.71-4,19-.5,2.22-1.46,4.6-2,7-1.42,6.29-2.57,12.71-4,19-.47,2.07-.59,4.2-1,6-1.42,6.28-2.59,12.86-4,19-.41,1.8-1.4,4.41-2,7-1.46,6.3-2.55,12.76-4,19-.46,1.98-2.79,4.19-2,7l-2-1c.75-1.93-1.49-9.37-2-12-.26-1.34-.72-2.66-1-4-.86-4.08-2.1-8-3-12-.31-1.39-.72-2.74-1-4-.97-4.36-2.03-8.68-3-13-.31-1.38-.71-2.7-1-4-.81-3.58-1.16-7.37-2-11-.38-1.66-.62-3.36-1-5-.93-4.01-2.07-7.99-3-12-.31-1.36-.7-2.68-1-4-.93-4.03-2.06-8.01-3-12-.32-1.36-.69-2.69-1-4-.83-3.49-1-8.19-2-12-.61-2.31-1.07-3.02-2-5-.23-.49.52-2.04-.49-1.99-11.01,5.68-21.71,11.96-32.51,17.99-3.93,2.19-7.57,2.06-11,6l-7.99,2.99c-.51-.5,5.19-11.48,5.99-12.99,1.94-3.67,4.03-7.32,6-11,4.78-8.93,10.08-17.69,14.88-26.64.74-1.92-2.58-1.99-3.88-2.36s-2.72-.69-4-1c-3.84-.93-8.48-1.18-12-2-1.3-.3-2.64-.68-4-1-4.32-1.01-8.67-2-13-3-1.3-.3-2.63-.68-4-1-3.99-.92-7.97-2.07-12-3-1.34-.31-2.66-.69-4-1-4-.92-8.4-1.17-12-2-1-.23-2.9-1.52-5-2-3.52-.81-7.6-1.21-11-2-1.81-.42-3.49-.65-5-1-3.96-.92-7.99-2.06-12-3-1.31-.31-2.64-.68-4-1-3.28-.77-6.39-2.57-10-2,.83-.85,1.98-1.94,3-3,6.58.4,12.75-2.6,19-4,1.81-.41,3.93-.53,6-1,6.7-1.52,13.36-3.5,20-5,1.74-.39,3.77-.5,6-1,6.29-1.43,12.71-2.57,19-4,2.4-.55,4.77-1.49,7-2,6.28-1.43,12.71-2.58,19-4,6.61-1.49,13.24-3.25,20-4.01,1.79-1.78-7.06-9.76-8-10.99-1.61-2.12-3.16-4.59-5-7-1.01-1.32-1.99-2.67-3-4-2.01-2.65-3.96-5.35-6-8-.72-.93-1.63-1.52-2-2-2.19-2.85-4.74-6.06-7-9-.94-1.22-2.02-2.73-3-4-1.58-2.04-3.15-4.67-5-7-1.02-1.28-1.6-2.97-3-4,.66-.81,2.06-1.24,3-1,.17.04,2,1.48,3,2,3.31,1.73,6.73,3.29,10,5,.82.43,1.78,1.36,3,2,3.28,1.72,6.77,3.29,10,5,.83.44,1.78,1.35,3,2,3.28,1.74,6.76,3.29,10,5,.83.44,1.77,1.35,3,2,3.27,1.72,6.76,3.28,10,5,1.88,1,8.03,6.38,9.51,4.01,1.19-1.9,2.72-13.67,3.49-17.01,1.45-6.3,2.56-12.73,4-19,.5-2.19,1.41-4.43,2-7,1.45-6.3,2.57-12.71,4-19,.51-2.22,1.45-4.61,2-7,1.43-6.29,2.56-12.73,4-19,.51-2.23,1.45-4.6,2-7,1.43-6.29,2.93-12.63,4-19,.67-.65,1.33-1.34,2-2,.24,3.09,1.32,6.01,2,9ZM235.14,220.24c-1.03,4.25-2.49,8.47-3.18,12.82-3.88.85-7.95,1.28-11.82,2.18-4.2.98-29.85,5.91-31,7.01-1.6,1.54.37,1.71,1.4,2.09,6.07,2.24,13.47,2.49,19.6,3.9,3.94.9,8.04,2.02,12,3,1.31.32,2.69.66,4,1,1.93.5,3.87.82,5.81,1.2.23,1.31.82,2.55,1.19,3.8.3,1.03.72,2.84,1,4,1.03,4.28,2.01,8.71,3,13s1.14,10.22,2.68,14.82l3.31,9.18c2.41-12.04,5.18-24.05,8.01-35.99.69-2.91.79-6.08,2.2-8.81,3.07-.26,5.85-1.51,8.8-2.19,11.22-2.58,22.76-4.43,34-7.01-5.86-4.71-16.44-5.23-24-6.99-3.63-.84-7.79-1.23-11-2-1.13-.27-3.09-.72-4-1-.8-.25-3.93-1.32-4.11-1.6-.02-1.99-1.45-3.88-1.89-5.4-.35-1.23-.66-2.71-1-4-.97-3.73-2.13-8.27-3-12-.38-1.62.25-4.09-.26-6.23-1.26-5.33-3.18-10.41-4.24-15.76-4.1,9.68-5.03,20.78-7.5,31Z"/>
</svg>